<svg t="1705824429054" class="icon" viewBox="0 0 1024 1024" version="1.1" xmlns="http://www.w3.org/2000/svg" p-id="3100" width="200" height="200"><path d="M512 0a512 512 0 1 0 0 1024A512 512 0 0 0 512 0z m0 962.112A450.112 450.112 0 1 1 512 61.888a450.112 450.112 0 0 1 0 900.224zM410.24 410.24h40.704a20.352 20.352 0 0 0 20.352-20.352V308.544a20.352 20.352 0 0 0-20.352-20.352H410.24a20.352 20.352 0 0 0-20.352 20.352v81.344c0 11.264 9.152 20.352 20.352 20.352z m0 183.168h40.704a20.352 20.352 0 0 0 20.352-20.352V491.648a20.352 20.352 0 0 0-20.352-20.352H410.24a20.352 20.352 0 0 0-20.352 20.352v81.408c0 11.2 9.152 20.352 20.352 20.352zM573.056 410.24h40.704a20.352 20.352 0 0 0 20.352-20.352V308.544a20.352 20.352 0 0 0-20.352-20.352h-40.704a20.352 20.352 0 0 0-20.352 20.352v81.344c0 11.264 9.088 20.352 20.352 20.352z m0 183.168h40.704a20.352 20.352 0 0 0 20.352-20.352V491.648a20.352 20.352 0 0 0-20.352-20.352h-40.704a20.352 20.352 0 0 0-20.352 20.352v81.408c0 11.2 9.088 20.352 20.352 20.352zM247.488 410.24h40.704a20.352 20.352 0 0 0 20.352-20.352V308.544a20.352 20.352 0 0 0-20.352-20.352h-40.704a20.352 20.352 0 0 0-20.352 20.352v81.344c0 11.264 9.088 20.352 20.352 20.352z m529.024-122.048h-40.704a20.352 20.352 0 0 0-20.352 20.352v81.344c0 11.264 9.152 20.352 20.352 20.352h40.704a20.352 20.352 0 0 0 20.352-20.352V308.544a20.352 20.352 0 0 0-20.352-20.352z m-467.968 284.8v-81.28a20.352 20.352 0 0 0-20.352-20.416h-40.704a20.352 20.352 0 0 0-20.352 20.352v81.408c0 11.2 9.088 20.352 20.352 20.352h40.704a20.352 20.352 0 0 0 20.352-20.352z m467.968-101.696h-40.704a20.352 20.352 0 0 0-20.352 20.352v81.408c0 11.2 9.152 20.352 20.352 20.352h40.704a20.352 20.352 0 0 0 20.352-20.352V491.648a20.352 20.352 0 0 0-20.352-20.352z m-40.704 203.52H288.192a20.352 20.352 0 0 0-20.352 20.352v20.288c0 11.264 9.088 20.352 20.352 20.352h447.616a20.352 20.352 0 0 0 20.352-20.352v-20.288a20.352 20.352 0 0 0-20.352-20.352z" fill="#53cba6" p-id="3101"></path></svg>