<?xml version="1.0" encoding="UTF-8" standalone="no"?>
<!DOCTYPE svg PUBLIC "-//W3C//DTD SVG 1.1//EN" "http://www.w3.org/Graphics/SVG/1.1/DTD/svg11.dtd">
<svg width="100%" height="100%" viewBox="0 0 90 90" version="1.1" xmlns="http://www.w3.org/2000/svg" xmlns:xlink="http://www.w3.org/1999/xlink" xml:space="preserve" xmlns:serif="http://www.serif.com/" style="fill-rule:evenodd;clip-rule:evenodd;stroke-linejoin:round;stroke-miterlimit:2;">
    <g id="LOGO">
        <g id="Artboard">
            <g id="logo-black">
                <g id="Group">
                    <circle id="Combined-Shape" cx="44.854" cy="44.854" r="44.854" style="fill:rgb(199,29,35);"/>
                    <path id="G" d="M67.559,39.871L42.086,39.871C40.863,39.872 39.871,40.863 39.87,42.086L39.869,47.624C39.868,48.847 40.859,49.839 42.083,49.839C42.083,49.839 42.083,49.839 42.083,49.839L57.591,49.839C58.814,49.839 59.806,50.83 59.806,52.054C59.806,52.054 59.806,52.054 59.806,52.054L59.806,53.161C59.806,56.831 56.831,59.806 53.161,59.806L32.117,59.806C30.893,59.806 29.902,58.815 29.902,57.591L29.901,36.549C29.901,32.879 32.876,29.904 36.546,29.904C36.546,29.904 36.546,29.904 36.546,29.904L67.552,29.904C68.775,29.903 69.767,28.912 69.769,27.689L69.772,22.152C69.774,20.928 68.783,19.936 67.56,19.935C67.559,19.935 67.559,19.935 67.559,19.937L36.548,19.937C27.373,19.937 19.935,27.374 19.935,36.549L19.935,67.559C19.935,68.782 20.927,69.774 22.15,69.774L54.822,69.774C63.08,69.774 69.774,63.08 69.774,54.822L69.774,42.086C69.774,40.863 68.782,39.871 67.559,39.871Z" style="fill:white;"/>
                </g>
            </g>
        </g>
    </g>
</svg>
